<svg id="Layer_1" data-name="Layer 1" xmlns="http://www.w3.org/2000/svg" viewBox="0 0 43.79958 31.5"><defs><style>.cls-1{fill:#fff;}</style></defs><path class="cls-1" d="M27.86223.00031l-.525.6c6.37493,1.95,9.3374,4.76246,9.3374,4.76246a30.5682,30.5682,0,0,0-11.28738-3.6,31.72958,31.72958,0,0,0-7.57494.075,3.6944,3.6944,0,0,0-.63748.075A28.16119,28.16119,0,0,0,8.66241,4.27527C7.27493,4.91277,6.45,5.36277,6.45,5.36277S9.5624,2.40029,16.31235.45031l-.375-.45A18.54372,18.54372,0,0,0,5.4,3.93777,50.21778,50.21778,0,0,0,0,25.80006S3.15,31.23751,11.4374,31.5c0,0,1.38748-1.68747,2.51247-3.11247a11.663,11.663,0,0,1-6.56244-4.425s.375.2625,1.05.6375a.51813.51813,0,0,0,.15.1125c.1125.075.225.11249.3375.1875a21.975,21.975,0,0,0,2.73747,1.275,31.47753,31.47753,0,0,0,5.51245,1.61248,26.26922,26.26922,0,0,0,9.7124.03751,24.68149,24.68149,0,0,0,5.43745-1.61249,21.45887,21.45887,0,0,0,4.31245-2.21248s-1.875,3.075-6.78742,4.46247c1.125,1.425,2.475,3.03746,2.475,3.03746,8.28741-.26249,11.47489-5.69994,11.47489-5.69994a50.21778,50.21778,0,0,0-5.4-21.86229A18.54372,18.54372,0,0,0,27.86223.00031ZM14.88735,22.31258a4.01992,4.01992,0,0,1-3.825-4.16244,3.99525,3.99525,0,0,1,3.825-4.16247,3.971,3.971,0,0,1,3.825,4.16247A3.99523,3.99523,0,0,1,14.88735,22.31258Zm13.68737,0a4.01992,4.01992,0,0,1-3.825-4.16244,3.99525,3.99525,0,0,1,3.825-4.16247,3.99524,3.99524,0,0,1,3.825,4.16247A3.99522,3.99522,0,0,1,28.57472,22.31258Z"/></svg>