<svg id="Layer_1" data-name="Layer 1" xmlns="http://www.w3.org/2000/svg" viewBox="0 0 30.15247 30.15253"><defs><style>.cls-1{fill:#fff;}</style></defs><path class="cls-1" d="M25.74677,0H4.40576A4.40571,4.40571,0,0,0,0,4.4057V25.74683a4.40576,4.40576,0,0,0,4.40576,4.4057H15.39185V19.32611H11.52527V14.92419h3.86658v-3.355c0-3.81659,2.27356-5.9248,5.75195-5.9248a23.4225,23.4225,0,0,1,3.40887.29736V9.68939H22.63239a2.201,2.201,0,0,0-2.48169,2.37824v2.85656h4.22351L23.699,19.32611H20.1507V30.15253h5.59607a4.40571,4.40571,0,0,0,4.4057-4.4057V4.4057A4.40567,4.40567,0,0,0,25.74677,0Z"/></svg>