<svg xmlns="http://www.w3.org/2000/svg" xmlns:xlink="http://www.w3.org/1999/xlink" width="60.013" height="59.076" viewBox="0 0 60.013 59.076"><defs><style>.a{fill:url(#a);}.b{fill:#feeba6;}.c{fill:url(#b);}.d{fill:url(#c);}.e{fill:url(#d);}.f{fill:url(#e);}.g{fill:url(#f);}.h{fill:url(#g);}</style><linearGradient id="a" x1="0.144" y1="0.17" x2="0.877" y2="0.85" gradientUnits="objectBoundingBox"><stop offset="0" stop-color="#ab662b"/><stop offset="0.149" stop-color="#c58238"/><stop offset="0.357" stop-color="#f1b14f"/><stop offset="0.491" stop-color="#fee470"/><stop offset="0.635" stop-color="#f3bc56"/><stop offset="0.673" stop-color="#f1b14f"/><stop offset="0.78" stop-color="#d18f3e"/><stop offset="0.924" stop-color="#ab662b"/></linearGradient><linearGradient id="b" x1="0.669" y1="0.013" x2="0.322" y2="1.012" gradientUnits="objectBoundingBox"><stop offset="0" stop-color="#ab662b"/><stop offset="0.023" stop-color="#b57130"/><stop offset="0.091" stop-color="#cf8d3d"/><stop offset="0.159" stop-color="#e2a147"/><stop offset="0.227" stop-color="#edad4d"/><stop offset="0.295" stop-color="#f1b14f"/><stop offset="0.334" stop-color="#f2b859"/><stop offset="0.4" stop-color="#f6ca75"/><stop offset="0.487" stop-color="#fde9a3"/><stop offset="0.491" stop-color="#feeba6"/><stop offset="0.52" stop-color="#fce298"/><stop offset="0.619" stop-color="#f6c770"/><stop offset="0.698" stop-color="#f2b758"/><stop offset="0.745" stop-color="#f1b14f"/><stop offset="0.854" stop-color="#d18f3e"/><stop offset="1" stop-color="#ab662b"/></linearGradient><linearGradient id="c" x1="0.609" y1="1.042" x2="0.392" y2="-0.041" gradientUnits="objectBoundingBox"><stop offset="0.412" stop-color="#fed46b"/><stop offset="0.5" stop-color="#dbad52"/><stop offset="0.609" stop-color="#b68439"/><stop offset="0.716" stop-color="#9a6425"/><stop offset="0.819" stop-color="#854d16"/><stop offset="0.915" stop-color="#793f0d"/><stop offset="1" stop-color="#753b0b"/></linearGradient><linearGradient id="d" x1="-0.056" y1="-0.035" x2="1.061" y2="1.551" gradientUnits="objectBoundingBox"><stop offset="0" stop-color="#854d16"/><stop offset="0.543" stop-color="#b07c34"/><stop offset="0.678" stop-color="#a26c2a"/><stop offset="0.938" stop-color="#7e4511"/><stop offset="1" stop-color="#753b0b"/></linearGradient><linearGradient id="e" x1="-4.069" y1="-4.462" x2="3.308" y2="3.549" xlink:href="#d"/><linearGradient id="f" x1="-0.298" y1="-0.8" x2="1.021" y2="0.99" xlink:href="#d"/><linearGradient id="g" x1="-0.195" y1="-0.316" x2="1.614" y2="2.169" xlink:href="#d"/></defs><g transform="translate(-458.874 -3191.102)"><path class="a" d="M518.887,3220.64A30.01,30.01,0,1,1,488.88,3191.1,29.775,29.775,0,0,1,518.887,3220.64Z"/><path class="b" d="M492.807,3228.1h-7.292v-.153h5.423a1.123,1.123,0,0,0,1.131-1.112v-2.608h-6.661v-.154h6.815v2.762a1.265,1.265,0,0,1-.672,1.112h1.256a1.049,1.049,0,0,0,1.055-1.038v-3a.6.6,0,0,0-.6-.593h-7.851v-.153h7.851a.753.753,0,0,1,.757.746v3A1.2,1.2,0,0,1,492.807,3228.1Z"/><path class="b" d="M490.77,3225.836h-5.361v-.154h5.207v-1.532h.154Z"/><path class="b" d="M489.111,3227.322h-3.7v-.153h3.549v-.664h-3.549v-.153h3.7Z"/><path class="b" d="M487.655,3228.864h-2.141v-.153H487.5v-.687h.154Z"/><path class="b" d="M488.735,3244.67h-.216a24.245,24.245,0,0,1-17.061-7.128,23.492,23.492,0,0,1-6.943-16.919,24.061,24.061,0,0,1,24.212-23.632h.215a23.943,23.943,0,0,1,23.706,19.93l.022.138-1.745-.049-.016-.093a22.516,22.516,0,1,0-22.177,26.119,22.541,22.541,0,0,0,20.789-13.564l.212.091a22.715,22.715,0,1,1-21-31.174,22.462,22.462,0,0,1,22.389,18.4l1.277.035a24.037,24.037,0,0,0-47.653,3.8,23.259,23.259,0,0,0,6.877,16.753,24.207,24.207,0,0,0,38.359-5.587l.2.108A24.192,24.192,0,0,1,488.735,3244.67Z"/><path class="b" d="M488.732,3242.553a21.652,21.652,0,1,1,21.234-27.662l.041.141-.994.037-.025-.086a21.054,21.054,0,1,0-20.256,26.616,21.5,21.5,0,0,0,17.242-8.734l-.423-.287a20.673,20.673,0,0,1-15.861,8.53l-.12.006v-2.986h.23v2.745a20.338,20.338,0,0,0,15.629-8.52l.066-.092.806.548-.07.1a21.73,21.73,0,0,1-17.5,8.925,20.931,20.931,0,1,1,20.451-27l.52-.019a21.534,21.534,0,1,0-.868,14.4l.043-.1.93.359-.083.215L509,3229.4A21.9,21.9,0,0,1,488.732,3242.553Z"/><path class="b" d="M487.25,3241.078c-.373-.026-.751-.062-1.121-.108l-.1-.013v-3.01h.231v2.806c.333.04.672.072,1.007.095Z"/><path class="b" d="M487.25,3240.335c-.373-.026-.751-.062-1.121-.108l.029-.229c.366.046.738.082,1.108.107Z"/><path class="b" d="M516.74,3217.651h-6.316l-2.015-2.11-.008-.028a20.252,20.252,0,0,0-18.6-14.73v2.721h-.23v-2.962l.12.005a20.633,20.633,0,0,1,12,4.488,20.163,20.163,0,0,1,6.924,10.388l1.907,2h6.217Z"/><path class="b" d="M486.1,3203.15v-2.461l.1-.013c.383-.046.773-.082,1.158-.106l.015.23c-.347.022-.7.054-1.044.094v2c.342-.039.687-.07,1.029-.092l.015.23c-.381.025-.766.06-1.146.106Z"/><path class="b" d="M486.232,3201.648l-.027-.229c.383-.045.773-.082,1.158-.106l.015.23C487,3201.567,486.612,3201.6,486.232,3201.648Z"/><path class="b" d="M486.232,3202.466l-.027-.229c.383-.046.773-.082,1.158-.107l.015.23C487,3202.385,486.611,3202.42,486.232,3202.466Z"/><path class="b" d="M485.6,3240.9l-.134-.021a20.707,20.707,0,0,1-12.363-6.808,20.064,20.064,0,0,1,.011-26.493,20.712,20.712,0,0,1,12.388-6.8l.133-.021v3.5H485.4v-3.234a20.026,20.026,0,0,0-.035,39.6v-2.5h.231Z"/><path class="b" d="M490.206,3240.259V3237.6h.23v2.409a19.759,19.759,0,0,0,13.391-6.935l.176.148a19.984,19.984,0,0,1-13.673,7.027Z"/><path class="b" d="M516.815,3218.47h-7.184l-1.823-1.927-.008-.031a19.371,19.371,0,0,0-17.293-14.86v1.875h-.231V3201.4l.125.011a19.764,19.764,0,0,1,11.347,4.737,19.3,19.3,0,0,1,6.27,10.281l1.712,1.809h7.085Z"/><path class="b" d="M484.882,3239.944l-.138-.027a19.906,19.906,0,0,1-11.284-6.694,19.254,19.254,0,0,1,0-24.786,19.9,19.9,0,0,1,11.276-6.7l.138-.028v2.544h-.231V3202a19.2,19.2,0,0,0,.011,37.668v-1.622h.231Z"/><path class="b" d="M491.046,3239.507v-1.684h.231v1.423a18.882,18.882,0,0,0,13.287-8.286l.025-.027,2.9-2.27h8.268v.23h-8.189l-2.823,2.21a19.111,19.111,0,0,1-13.57,8.388Z"/><path class="b" d="M516.891,3219.36h-7.848l-1.807-2.251-.006-.026a18.73,18.73,0,0,0-15.964-14.675v1.281h-.23v-1.542l.129.016a18.965,18.965,0,0,1,16.286,14.845l1.7,2.122h7.737Z"/><path class="b" d="M484.047,3239.075l-.144-.037a18.75,18.75,0,0,1,.047-36.432l.143-.037v1.391h-.23v-1.094a18.518,18.518,0,0,0-.047,35.911v-.736h.231Z"/><path class="b" d="M492.269,3238.592l-.043-.226a18.2,18.2,0,0,0,12.015-8.246l.025-.029,2.77-2.266h8.873v.23h-8.791l-2.691,2.2A18.425,18.425,0,0,1,492.269,3238.592Z"/><path class="b" d="M516.891,3220.178H508.3l-1.638-2.149-.005-.028a18.036,18.036,0,0,0-14.407-14.706l.044-.226a18.269,18.269,0,0,1,14.586,14.866l1.534,2.012h8.474Z"/><path class="b" d="M481.51,3222.73H472.1l-1.751-1.856v-.046a18.178,18.178,0,0,1,13.56-17.47l.06.223a17.947,17.947,0,0,0-13.39,17.2l1.62,1.717h9.312Z"/><path class="b" d="M483.393,3238.152a18.219,18.219,0,0,1-12.614-13.41l-.014-.059,1.309-1.391h9.612v.23h-9.513l-1.156,1.23a17.989,17.989,0,0,0,12.442,13.179Z"/><path class="b" d="M488.732,3238.244a17.676,17.676,0,0,1-17.082-12.868l-.018-.066,1.3-1.275h8.578v.23h-8.484l-1.135,1.114a17.569,17.569,0,0,0,32.04,3.914l.024-.029,2.587-2.282h9.594v.231h-9.507l-2.508,2.211A17.787,17.787,0,0,1,488.732,3238.244Z"/><path class="b" d="M481.51,3222.061h-8.959l-1.506-1.632,0-.047a17.189,17.189,0,0,1,5.326-12.015,17.78,17.78,0,0,1,29.919,10.337l1.374,2h9.3v.231h-9.422l-1.473-2.147,0-.029a17.484,17.484,0,0,0-34.789,1.582l1.374,1.489h8.858Z"/><path class="b" d="M476.906,3232.781a16.734,16.734,0,0,1-4.241-6.628l-.022-.064,1.174-1.286h7.592v.23h-7.491l-1.013,1.11a16.489,16.489,0,0,0,4.161,6.471Z"/><path class="b" d="M488.732,3237.513a16.989,16.989,0,0,1-10.094-3.28l-.281-.2,3.756-.035,0,.23-3.055.029a16.885,16.885,0,0,0,24.456-5.733l.023-.03,2.436-2.25h10.349v.231H506.065l-2.356,2.175A16.962,16.962,0,0,1,488.732,3237.513Z"/><path class="b" d="M516.853,3221.739H506.71l-1.3-2.057,0-.029a16.74,16.74,0,0,0-33.348-.051l1.4,1.46h8.054v.231h-8.152l-1.536-1.606,0-.051a16.513,16.513,0,0,1,5.329-10.994,17.142,17.142,0,0,1,23.154,0,16.515,16.515,0,0,1,5.327,10.965l1.2,1.9h10.016Z"/><path class="b" d="M477.218,3232a15.836,15.836,0,0,1-3.457-5.154l-.028-.067,1.132-1.259h6.544v.231h-6.441l-.966,1.074a15.614,15.614,0,0,0,3.378,5.011Z"/><path class="b" d="M488.732,3236.744a16.526,16.526,0,0,1-2.743-.228l.038-.227a16.383,16.383,0,0,0,2.7.224,16.056,16.056,0,0,0,14.365-8.885l.01-.02,2.373-2.087h11v.231h-10.91l-2.272,2a16.043,16.043,0,0,1-5.849,6.486A16.3,16.3,0,0,1,488.732,3236.744Z"/><path class="b" d="M516.891,3222.519h-10.77l-1.458-2.1v-.034a15.957,15.957,0,0,0-31.768-1.324l1.214,1.206h7.577v.231h-7.672l-1.36-1.352.006-.055a16.041,16.041,0,0,1,16.072-14.182,16.211,16.211,0,0,1,11.281,4.515,15.715,15.715,0,0,1,4.879,10.92l1.35,1.942h10.649Z"/><path class="b" d="M491.926,3235.676l-.047-.226a15.2,15.2,0,0,0,4.045-1.458H493.69v-.231h3.12l-.379.216A15.466,15.466,0,0,1,491.926,3235.676Z"/><path class="b" d="M481.837,3219.76h-7.006l-1.315-1.367.009-.058a15.031,15.031,0,0,1,3.621-7.516l.172.154a14.793,14.793,0,0,0-3.556,7.343l1.167,1.213h6.908Z"/><path class="b" d="M478.021,3231.74a15.241,15.241,0,0,1-2.851-3.7l-.043-.078,1.813-1.728h4.746v.231h-4.654l-1.617,1.542a14.988,14.988,0,0,0,2.766,3.561Z"/><path class="b" d="M488.732,3236a15.9,15.9,0,0,1-2.744-.239l.04-.227a15.715,15.715,0,0,0,3.694.205l.014.23C489.4,3235.992,489.065,3236,488.732,3236Z"/><path class="b" d="M516.815,3223.353H505.468l-1.565-1.914v-.043c.008-.188.011-.379.011-.568a15.063,15.063,0,0,0-12.036-14.623l.047-.225a15.5,15.5,0,0,1,8.727,5.228,15.057,15.057,0,0,1,3.492,9.62c0,.177,0,.356-.009.533l1.442,1.762h11.237Z"/><path class="b" d="M485.886,3206.146l-.042-.227a15.9,15.9,0,0,1,3.892-.234l-.015.23A15.693,15.693,0,0,0,485.886,3206.146Z"/><path class="b" d="M478.763,3209.556l-.151-.175a15.4,15.4,0,0,1,5.331-2.981l.071.22A15.135,15.135,0,0,0,478.763,3209.556Z"/><path class="b" d="M481.686,3219.064h-6.013l-1.279-1.332.014-.06a14.38,14.38,0,0,1,3.294-6.377l.172.154a14.149,14.149,0,0,0-3.228,6.213l1.125,1.171h5.915Z"/><path class="b" d="M488.737,3235.281a15,15,0,0,1-2.614-.229l.041-.227a14.976,14.976,0,0,0,3.515.2l.014.23C489.377,3235.271,489.055,3235.281,488.737,3235.281Z"/><path class="b" d="M486.029,3206.855l-.043-.227a15.131,15.131,0,0,1,3.707-.223l-.014.23A14.869,14.869,0,0,0,486.029,3206.855Z"/><path class="b" d="M479.918,3209.56l-.139-.183a14.7,14.7,0,0,1,4.121-2.2l.076.218A14.48,14.48,0,0,0,479.918,3209.56Z"/><path class="b" d="M481.062,3209.682l-.132-.189a14.647,14.647,0,0,1,3.188-1.69l.082.215A14.47,14.47,0,0,0,481.062,3209.682Z"/><path class="b" d="M478.018,3230.679a14.536,14.536,0,0,1-1.617-2.042l-.054-.082,1.71-1.573h3.453v.231h-3.364l-1.5,1.379a14.374,14.374,0,0,0,1.537,1.929Z"/><path class="b" d="M488.732,3234.63a14.309,14.309,0,0,1-2.746-.265l.044-.226a14.212,14.212,0,0,0,3.691.226l.016.23C489.4,3234.618,489.066,3234.63,488.732,3234.63Z"/><path class="b" d="M485.889,3207.545l-.047-.226a14.431,14.431,0,0,1,3.895-.258l-.016.23A14.212,14.212,0,0,0,485.889,3207.545Z"/><path class="b" d="M481.51,3218.47h-4.869l-1.427-1.313.019-.068a13.791,13.791,0,0,1,2.883-5.275l.173.151a13.563,13.563,0,0,0-2.814,5.119l1.256,1.155h4.779Z"/><path class="b" d="M488.732,3233.9a13.63,13.63,0,0,1-2.747-.28l.047-.226a13.417,13.417,0,0,0,3.688.239l.017.23C489.4,3233.884,489.067,3233.9,488.732,3233.9Z"/><path class="b" d="M485.89,3208.295l-.049-.225a13.669,13.669,0,0,1,3.893-.275l-.017.23A13.466,13.466,0,0,0,485.89,3208.295Z"/><path class="b" d="M481.837,3217.813h-3.785l-1.69-1.739.029-.069a13.157,13.157,0,0,1,3.236-4.688l.157.169a12.947,12.947,0,0,0-3.152,4.536l1.518,1.56h3.687Z"/><path class="b" d="M481.686,3216.908h-2.413l-1.715-1.7.04-.076a12.4,12.4,0,0,1,2.907-3.631l.15.176a12.125,12.125,0,0,0-2.813,3.488l1.526,1.509h2.318Z"/><path class="b" d="M487.25,3239.592c-.373-.026-.751-.063-1.121-.109l.029-.228c.366.045.738.081,1.108.107Z"/><path class="b" d="M487.25,3238.849c-.373-.026-.751-.063-1.121-.109l.029-.228c.366.045.738.081,1.108.107Z"/><rect class="b" width="11.104" height="0.231" transform="translate(505.523 3224.629)"/><path class="b" d="M516.74,3224.117H504.73l-3.28-3.25v-4.743h.23v4.647l3.145,3.115H516.74Z"/><path class="b" d="M490.77,3217.7h-2.776v-.154h2.776a1.2,1.2,0,0,0,1.207-1.187V3214.3a.674.674,0,0,0-.679-.666h-5.531v-.154H491.3a.827.827,0,0,1,.832.82v2.062A1.352,1.352,0,0,1,490.77,3217.7Z"/><rect class="b" width="3.919" height="0.154" transform="translate(485.767 3214.116)"/><path class="b" d="M489.259,3216.583h-3.493v-.153h3.339v-.632h2.378v-.6h-5.717v-.154h5.871v.907h-2.378Z"/><path class="b" d="M488.3,3219.645h-.153v-3.061H487.6v3.061h-.153v-3.214h.852Z"/><rect class="b" width="1.755" height="0.154" transform="translate(485.767 3217.254)"/><rect class="b" width="1.925" height="1.254" rx="0.158" transform="translate(487.008 3200.457)"/><rect class="b" width="1.925" height="1.254" rx="0.158" transform="translate(487.008 3201.94)"/><rect class="b" width="1.344" height="1.323" rx="0.088" transform="translate(492.84 3207.212)"/><rect class="b" width="1.344" height="1.323" rx="0.088" transform="translate(492.84 3233.29)"/><path class="b" d="M.15,0H.856a.15.15,0,0,1,.15.15V1.2a.149.149,0,0,1-.149.149H.15A.15.15,0,0,1,0,1.2V.15A.15.15,0,0,1,.15,0Z" transform="translate(481.686 3233.504)"/><rect class="b" width="1.006" height="1.347" rx="0.15" transform="translate(481.686 3235.05)"/><path class="b" d="M.149,0H1.473a.15.15,0,0,1,.15.15v.94a.15.15,0,0,1-.15.15H.15A.15.15,0,0,1,0,1.089V.149A.149.149,0,0,1,.149,0Z" transform="translate(487.109 3238.479)"/><rect class="b" width="1.623" height="1.24" rx="0.15" transform="translate(487.109 3240.002)"/><path class="b" d="M.15,0H.68A.15.15,0,0,1,.83.15V.94a.15.15,0,0,1-.15.15H.149A.149.149,0,0,1,0,.941V.15A.15.15,0,0,1,.15,0Z" transform="translate(501.113 3214.316)"/><rect class="b" width="1.887" height="1.09" rx="0.15" transform="translate(500.836 3215.827)"/><path class="b" d="M.149,0H1.737a.15.15,0,0,1,.15.15V.94a.15.15,0,0,1-.15.15H.15A.15.15,0,0,1,0,.94V.149A.149.149,0,0,1,.149,0Z" transform="translate(500.836 3219.739)"/><rect class="b" width="1.887" height="0.743" rx="0.15" transform="translate(500.836 3217.338)"/><rect class="b" width="1.887" height="0.743" rx="0.15" transform="translate(500.836 3218.502)"/><path class="b" d="M.15,0H2.316a.15.15,0,0,1,.15.15V.594a.149.149,0,0,1-.149.149H.15A.15.15,0,0,1,0,.593V.15A.15.15,0,0,1,.15,0Z" transform="translate(503.403 3224.274)"/><rect class="b" width="3.724" height="3.666" transform="translate(507.077 3222.688)"/><path class="b" d="M.149,0H2.115a.149.149,0,0,1,.149.149V.519a.15.15,0,0,1-.15.15H.15A.15.15,0,0,1,0,.519V.149A.149.149,0,0,1,.149,0Z" transform="translate(512.361 3222.887)"/><path class="b" d="M.149,0H2.115a.149.149,0,0,1,.149.149V.518a.15.15,0,0,1-.15.15H.15A.15.15,0,0,1,0,.519V.149A.149.149,0,0,1,.149,0Z" transform="translate(512.361 3221.289)"/><path class="b" d="M.15,0H2.115a.15.15,0,0,1,.15.15V.52a.149.149,0,0,1-.149.149H.15A.15.15,0,0,1,0,.519V.15A.15.15,0,0,1,.15,0Z" transform="translate(512.361 3219.691)"/><rect class="b" width="0.689" height="0.607" rx="0.15" transform="translate(506.124 3222.887)"/><rect class="b" width="0.689" height="0.607" rx="0.15" transform="translate(506.124 3223.698)"/><rect class="b" width="0.689" height="0.607" rx="0.15" transform="translate(506.124 3224.441)"/><rect class="b" width="0.689" height="0.607" rx="0.15" transform="translate(506.124 3225.258)"/><path class="b" d="M.149,0h.39a.15.15,0,0,1,.15.15V.457A.149.149,0,0,1,.54.606H.15A.15.15,0,0,1,0,.457V.149A.149.149,0,0,1,.149,0Z" transform="translate(506.124 3226.051)"/><rect class="b" width="0.689" height="0.607" rx="0.15" transform="translate(511.075 3222.887)"/><rect class="b" width="0.689" height="0.607" rx="0.15" transform="translate(511.075 3223.698)"/><rect class="b" width="0.689" height="0.607" rx="0.15" transform="translate(511.075 3224.441)"/><rect class="b" width="0.689" height="0.607" rx="0.15" transform="translate(511.075 3225.258)"/><path class="b" d="M.149,0h.39a.15.15,0,0,1,.15.15V.457A.149.149,0,0,1,.54.606H.15A.15.15,0,0,1,0,.457V.149A.149.149,0,0,1,.149,0Z" transform="translate(511.075 3226.051)"/><path class="b" d="M.232,0H2.065A.233.233,0,0,1,2.3.233v.779a.233.233,0,0,1-.233.233H.233A.233.233,0,0,1,0,1.012V.232A.232.232,0,0,1,.232,0Z" transform="translate(476.87 3219.227)"/><rect class="b" width="2.297" height="1.245" rx="0.233" transform="translate(476.87 3220.701)"/><rect class="b" width="2.297" height="1.245" rx="0.233" transform="translate(476.87 3222.323)"/><rect class="b" width="2.297" height="1.245" rx="0.233" transform="translate(476.87 3223.899)"/><path class="b" d="M.243,0H2.055A.242.242,0,0,1,2.3.242V1.1a.242.242,0,0,1-.242.242H.242A.242.242,0,0,1,0,1.1V.243A.243.243,0,0,1,.243,0Z" transform="translate(476.87 3225.367)"/><rect class="b" width="1.227" height="1.208" rx="0.225" transform="translate(478.993 3227.419)"/><path class="b" d="M.15,0H.869a.15.15,0,0,1,.15.15V1.2A.149.149,0,0,1,.87,1.35H.149A.149.149,0,0,1,0,1.2V.15A.15.15,0,0,1,.15,0Z" transform="translate(479.22 3213.461)"/><rect class="b" width="1.019" height="1.35" rx="0.149" transform="translate(479.22 3215.022)"/><path class="b" d="M482.62,3206.7l-1.468.677a.229.229,0,0,1-.3-.107l-.208-.438a.221.221,0,0,1,.109-.3l1.468-.677a.228.228,0,0,1,.3.107l.209.438A.222.222,0,0,1,482.62,3206.7Z"/><path class="b" d="M502.98,3214.587l-.728-1.426a.222.222,0,0,1,.1-.3l.44-.217a.229.229,0,0,1,.3.1l.728,1.426a.223.223,0,0,1-.1.3l-.439.217A.227.227,0,0,1,502.98,3214.587Z"/><path class="b" d="M503.5,3212.346l-.874-1.344a.221.221,0,0,1,.069-.308l.413-.26a.228.228,0,0,1,.313.068l.873,1.344a.221.221,0,0,1-.068.308l-.414.26A.227.227,0,0,1,503.5,3212.346Z"/><path class="b" d="M503.612,3209.989l-1.034-1.228a.221.221,0,0,1,.029-.314l.378-.309a.23.23,0,0,1,.319.03l1.035,1.228a.221.221,0,0,1-.03.314l-.378.308A.229.229,0,0,1,503.612,3209.989Z"/><path class="b" d="M503.715,3207.75l-1.127-1.147a.22.22,0,0,1,0-.315l.353-.337a.23.23,0,0,1,.321.006l1.127,1.147a.22.22,0,0,1-.006.315l-.352.336A.231.231,0,0,1,503.715,3207.75Z"/><path class="b" d="M480.084,3206.318l-1.366.859a.23.23,0,0,1-.313-.068l-.264-.408a.22.22,0,0,1,.069-.307l1.367-.859a.229.229,0,0,1,.313.068l.264.407A.221.221,0,0,1,480.084,3206.318Z"/><path class="b" d="M477.753,3206.169l-1.274.985a.23.23,0,0,1-.319-.037l-.3-.381a.221.221,0,0,1,.038-.313l1.276-.985a.229.229,0,0,1,.318.038l.3.38A.22.22,0,0,1,477.753,3206.169Z"/><path class="b" d="M475.444,3206.142l-1.174,1.1a.229.229,0,0,1-.32-.008l-.339-.35a.22.22,0,0,1,.008-.315l1.174-1.1a.229.229,0,0,1,.32.008l.339.35A.221.221,0,0,1,475.444,3206.142Z"/><path class="b" d="M474.463,3226.945l.694,1.442a.221.221,0,0,1-.108.3l-.443.207a.228.228,0,0,1-.3-.106l-.694-1.442a.222.222,0,0,1,.107-.3l.444-.207A.229.229,0,0,1,474.463,3226.945Z"/><path class="b" d="M473.958,3229.256l.873,1.345a.22.22,0,0,1-.069.307l-.414.261a.228.228,0,0,1-.312-.068l-.874-1.345a.222.222,0,0,1,.069-.308l.414-.26A.229.229,0,0,1,473.958,3229.256Z"/><path class="b" d="M473.855,3231.681l1.018,1.242a.221.221,0,0,1-.035.314l-.382.3a.229.229,0,0,1-.318-.034l-1.017-1.242a.22.22,0,0,1,.034-.314l.382-.3A.229.229,0,0,1,473.855,3231.681Z"/><path class="b" d="M473.759,3233.887l1.119,1.155a.22.22,0,0,1-.007.315l-.355.333a.229.229,0,0,1-.32-.007l-1.12-1.154a.221.221,0,0,1,.008-.316l.355-.333A.229.229,0,0,1,473.759,3233.887Z"/><path class="b" d="M496.94,3234.99l-1.449.715a.228.228,0,0,1-.3-.1l-.22-.432a.221.221,0,0,1,.1-.3l1.45-.716a.229.229,0,0,1,.3.1l.22.432A.222.222,0,0,1,496.94,3234.99Z"/><path class="b" d="M499.512,3235.057l-1.353.879a.23.23,0,0,1-.314-.063l-.271-.4a.221.221,0,0,1,.065-.309l1.353-.879a.229.229,0,0,1,.314.064l.27.4A.221.221,0,0,1,499.512,3235.057Z"/><path class="b" d="M501.585,3235.214l-1.272.989a.228.228,0,0,1-.318-.036l-.3-.38a.221.221,0,0,1,.037-.313l1.273-.989a.229.229,0,0,1,.318.037l.3.379A.22.22,0,0,1,501.585,3235.214Z"/><path class="b" d="M504.078,3234.84l-1.146,1.129a.23.23,0,0,1-.321,0l-.347-.342a.221.221,0,0,1,0-.315l1.147-1.128a.227.227,0,0,1,.32,0l.347.341A.219.219,0,0,1,504.078,3234.84Z"/><path class="b" d="M505.457,3232.988l-.727.871a.271.271,0,0,1-.379.037l-.66-.533a.262.262,0,0,1-.037-.373l.726-.871a.271.271,0,0,1,.379-.037l.66.533A.263.263,0,0,1,505.457,3232.988Z"/><rect class="b" width="1.418" height="1.623" transform="translate(487.616 3213.042)"/><rect class="b" width="1.418" height="1.623" transform="translate(489.39 3213.042)"/><rect class="b" width="2.483" height="1.22" transform="translate(487.616 3214.86)"/><rect class="b" width="1.357" height="1.336" transform="translate(491.375 3214.193)"/><rect class="b" width="1.094" height="1.077" transform="translate(487.276 3216.793)"/><rect class="b" width="1.396" height="1.561" transform="translate(487.869 3223.728)"/><rect class="b" width="1.396" height="1.561" transform="translate(489.623 3223.728)"/><rect class="b" width="1.396" height="1.561" transform="translate(491.377 3223.728)"/><rect class="b" width="1.396" height="1.561" transform="translate(493.132 3223.728)"/><rect class="b" width="2.645" height="1.165" transform="translate(488.732 3226.254)"/><rect class="b" width="1.094" height="1.077" transform="translate(487.276 3227.865)"/><path class="b" d="M465.274,3224.181l-.822.073a.224.224,0,0,1-.245-.2l-.237-2.576a.223.223,0,0,1,.2-.241l.823-.073a.224.224,0,0,1,.244.2l.237,2.576A.223.223,0,0,1,465.274,3224.181Z"/><path class="b" d="M466.222,3228.139l-.8.213a.226.226,0,0,1-.276-.156l-.688-2.5a.221.221,0,0,1,.159-.272l.8-.213a.224.224,0,0,1,.276.156l.688,2.5A.221.221,0,0,1,466.222,3228.139Z"/><path class="b" d="M467.853,3231.876l-.748.346a.226.226,0,0,1-.3-.107l-1.118-2.341a.221.221,0,0,1,.108-.295l.747-.346a.228.228,0,0,1,.3.107l1.118,2.341A.221.221,0,0,1,467.853,3231.876Z"/><path class="b" d="M470.119,3235.277l-.676.468a.228.228,0,0,1-.314-.053l-1.513-2.115a.219.219,0,0,1,.054-.309l.675-.468a.227.227,0,0,1,.314.053l1.514,2.115A.22.22,0,0,1,470.119,3235.277Z"/><path class="b" d="M472.95,3238.239l-.582.576a.227.227,0,0,1-.319,0l-1.864-1.823a.22.22,0,0,1,0-.314l.582-.576a.226.226,0,0,1,.318,0l1.864,1.823A.22.22,0,0,1,472.95,3238.239Z"/><path class="b" d="M476.261,3240.672l-.472.667a.229.229,0,0,1-.314.056l-2.157-1.478a.22.22,0,0,1-.056-.309l.472-.667a.226.226,0,0,1,.313-.055l2.157,1.477A.219.219,0,0,1,476.261,3240.672Z"/><path class="b" d="M479.95,3242.5l-.346.738a.228.228,0,0,1-.3.108l-2.385-1.086a.221.221,0,0,1-.109-.295l.346-.737a.227.227,0,0,1,.3-.109l2.384,1.087A.22.22,0,0,1,479.95,3242.5Z"/><path class="b" d="M483.907,3243.673l-.212.787a.225.225,0,0,1-.275.157l-2.541-.662a.223.223,0,0,1-.16-.271l.212-.786a.225.225,0,0,1,.275-.158l2.541.662A.222.222,0,0,1,483.907,3243.673Z"/><path class="b" d="M488.01,3244.151l-.07.81a.224.224,0,0,1-.243.2l-2.619-.218a.223.223,0,0,1-.205-.24l.069-.81a.225.225,0,0,1,.243-.2l2.619.218A.224.224,0,0,1,488.01,3244.151Z"/><path class="b" d="M492.134,3243.92l.075.81a.221.221,0,0,1-.2.24l-2.617.234a.225.225,0,0,1-.245-.2l-.075-.809a.225.225,0,0,1,.205-.241l2.617-.233A.224.224,0,0,1,492.134,3243.92Z"/><path class="b" d="M496.156,3242.987l.216.785a.222.222,0,0,1-.158.272l-2.537.677a.226.226,0,0,1-.276-.156l-.216-.785a.221.221,0,0,1,.158-.272l2.536-.677A.227.227,0,0,1,496.156,3242.987Z"/><path class="b" d="M499.952,3241.381l.351.736a.22.22,0,0,1-.108.3l-2.378,1.1a.227.227,0,0,1-.3-.106l-.351-.736a.22.22,0,0,1,.108-.295l2.378-1.1A.228.228,0,0,1,499.952,3241.381Z"/><path class="b" d="M503.407,3239.151l.475.664a.22.22,0,0,1-.054.31l-2.148,1.49a.228.228,0,0,1-.314-.054l-.476-.664a.22.22,0,0,1,.055-.31l2.148-1.49A.229.229,0,0,1,503.407,3239.151Z"/><path class="b" d="M506.416,3236.364l.586.573a.22.22,0,0,1,0,.314l-1.852,1.834a.228.228,0,0,1-.319,0l-.585-.573a.218.218,0,0,1,0-.313l1.852-1.835A.229.229,0,0,1,506.416,3236.364Z"/><path class="b" d="M508.887,3233.1l.678.464a.221.221,0,0,1,.057.309l-1.5,2.124a.228.228,0,0,1-.314.055l-.678-.465a.219.219,0,0,1-.056-.308l1.5-2.124A.227.227,0,0,1,508.887,3233.1Z"/><path class="b" d="M510.747,3229.473l.749.341a.221.221,0,0,1,.11.295l-1.1,2.348a.226.226,0,0,1-.3.107l-.749-.341a.22.22,0,0,1-.11-.294l1.1-2.348A.227.227,0,0,1,510.747,3229.473Z"/><path class="b" d="M511.239,3213.521l.8-.213a.225.225,0,0,1,.276.156l.688,2.5a.221.221,0,0,1-.159.272l-.8.213a.225.225,0,0,1-.276-.156l-.688-2.5A.221.221,0,0,1,511.239,3213.521Z"/><path class="b" d="M509.608,3209.784l.747-.345a.227.227,0,0,1,.3.1l1.118,2.342a.22.22,0,0,1-.108.295l-.748.346a.226.226,0,0,1-.3-.107l-1.118-2.341A.221.221,0,0,1,509.608,3209.784Z"/><path class="b" d="M507.342,3206.383l.676-.468a.227.227,0,0,1,.314.053l1.513,2.115a.219.219,0,0,1-.054.309l-.675.468a.227.227,0,0,1-.314-.053l-1.514-2.115A.22.22,0,0,1,507.342,3206.383Z"/><path class="b" d="M504.511,3203.421l.582-.576a.228.228,0,0,1,.319,0l1.864,1.824a.219.219,0,0,1,0,.313l-.582.577a.227.227,0,0,1-.318,0l-1.864-1.824A.22.22,0,0,1,504.511,3203.421Z"/><path class="b" d="M501.2,3200.988l.472-.667a.227.227,0,0,1,.314-.055l2.157,1.477a.22.22,0,0,1,.056.309l-.472.667a.227.227,0,0,1-.313.055l-2.157-1.477A.219.219,0,0,1,501.2,3200.988Z"/><path class="b" d="M497.511,3199.158l.346-.738a.229.229,0,0,1,.3-.108l2.385,1.086a.221.221,0,0,1,.109.3l-.346.738a.228.228,0,0,1-.3.108l-2.384-1.086A.22.22,0,0,1,497.511,3199.158Z"/><path class="b" d="M493.554,3197.986l.212-.785a.225.225,0,0,1,.275-.158l2.541.662a.222.222,0,0,1,.16.271l-.212.786a.226.226,0,0,1-.275.158l-2.541-.662A.223.223,0,0,1,493.554,3197.986Z"/><path class="b" d="M489.451,3197.509l.07-.81a.223.223,0,0,1,.243-.2l2.619.217a.223.223,0,0,1,.205.24l-.069.81a.224.224,0,0,1-.244.2l-2.618-.217A.224.224,0,0,1,489.451,3197.509Z"/><path class="b" d="M485.327,3197.74l-.075-.81a.224.224,0,0,1,.2-.241l2.617-.232a.223.223,0,0,1,.245.2l.075.81a.224.224,0,0,1-.2.241l-2.618.233A.224.224,0,0,1,485.327,3197.74Z"/><path class="b" d="M481.3,3198.673l-.216-.785a.221.221,0,0,1,.159-.272l2.536-.677a.226.226,0,0,1,.276.156l.216.785a.221.221,0,0,1-.158.272l-2.536.677A.226.226,0,0,1,481.3,3198.673Z"/><path class="b" d="M477.509,3200.279l-.351-.736a.22.22,0,0,1,.108-.295l2.379-1.1a.226.226,0,0,1,.3.106l.351.736a.22.22,0,0,1-.108.295l-2.378,1.1A.227.227,0,0,1,477.509,3200.279Z"/><path class="b" d="M474.054,3202.509l-.475-.665a.218.218,0,0,1,.054-.308l2.148-1.491a.228.228,0,0,1,.314.054l.476.665a.218.218,0,0,1-.055.308l-2.148,1.491A.229.229,0,0,1,474.054,3202.509Z"/><path class="b" d="M471.045,3205.3l-.586-.573a.221.221,0,0,1,0-.314l1.853-1.834a.228.228,0,0,1,.319,0l.586.573a.219.219,0,0,1,0,.313l-1.853,1.835A.228.228,0,0,1,471.045,3205.3Z"/><path class="b" d="M468.574,3208.555l-.678-.464a.221.221,0,0,1-.057-.309l1.5-2.123a.228.228,0,0,1,.314-.056l.678.464a.221.221,0,0,1,.056.31l-1.5,2.123A.227.227,0,0,1,468.574,3208.555Z"/><path class="b" d="M466.715,3212.187l-.75-.341a.221.221,0,0,1-.11-.295l1.1-2.347a.228.228,0,0,1,.3-.109l.749.342a.22.22,0,0,1,.11.294l-1.1,2.348A.227.227,0,0,1,466.715,3212.187Z"/><path class="b" d="M465.524,3216.082l-.8-.208a.221.221,0,0,1-.16-.271l.672-2.5a.226.226,0,0,1,.276-.158l.8.208a.221.221,0,0,1,.159.271l-.672,2.5A.226.226,0,0,1,465.524,3216.082Z"/><path class="b" d="M465.039,3220.12l-.823-.068a.223.223,0,0,1-.205-.239l.221-2.578a.226.226,0,0,1,.244-.2l.822.069a.222.222,0,0,1,.206.239l-.221,2.578A.224.224,0,0,1,465.039,3220.12Z"/><path class="c" d="M488.881,3191.1a29.542,29.542,0,1,0,30.006,29.538A29.776,29.776,0,0,0,488.881,3191.1Zm0,57.331a27.8,27.8,0,1,1,28.234-27.793A28.016,28.016,0,0,1,488.881,3248.433Z"/><path class="d" d="M489.068,3192.377a27.986,27.986,0,1,0,28.427,27.983A28.208,28.208,0,0,0,489.068,3192.377Zm0,55.26a27.28,27.28,0,1,1,27.71-27.277A27.5,27.5,0,0,1,489.068,3247.637Z"/><path class="b" d="M470.871,3232.113a1.021,1.021,0,0,1-.986-.83l-.016-.072v-.072a.921.921,0,0,1-.123-.685.792.792,0,0,1,.184-.416,1,1,0,0,1,.476-1.049,5.79,5.79,0,0,1,.4-.548c.079-.1.152-.19.219-.282a.868.868,0,0,1,.107-.559.97.97,0,0,1,.208-.274.887.887,0,0,1,.139-.314.8.8,0,0,1,.672-.388h.044a1.642,1.642,0,0,1,.633-.129,1.14,1.14,0,0,1,.476.095,3.735,3.735,0,0,1,.726.489l.356-.135a15.389,15.389,0,0,1,3.063-.931l-.167-.484-.187-.537-.258-.044-.134-.341c-.017-.043-1.507-3.865-1.284-5.659-.438-.615-.6-2.118.373-5.96l-.227.045c-.414.409-1.469,1.433-2.04,1.888-.014.068-.029.139-.043.208a1.79,1.79,0,0,1-.252.743,2.585,2.585,0,0,1-.635.591c-.047.034-.093.067-.139.1a1.952,1.952,0,0,1-1.171.437,1.184,1.184,0,0,1-1.205-.833l-.021-.095.008-.1a.861.861,0,0,1,.013-.09.812.812,0,0,1-.231-.452.836.836,0,0,1,.495-.9l.128-.08c.221-.136.225-.138.289-.272a1.817,1.817,0,0,1,.91-.945c.3-.516,1.061-1.824,1.759-2.837a1.153,1.153,0,0,1,.449-.378l-.044-.265.45-.207a17.716,17.716,0,0,1,4.559-.756,3.552,3.552,0,0,1,1.175.156,5.8,5.8,0,0,1,.989.451,2.782,2.782,0,0,1,2.352-1.377h.031a2.391,2.391,0,0,1,1.6.568,2.675,2.675,0,0,1,.977,1.829c.008.048.017.094.026.138a1.963,1.963,0,0,1-.092,1.324,1.045,1.045,0,0,1-.681.553.5.5,0,0,0-.124.051l-.021.016a1.509,1.509,0,0,0-.314.391,1.785,1.785,0,0,1-.534.593.79.79,0,0,1-.421.123.711.711,0,0,1-.109-.008c-.073.032-.146.067-.221.1a2.392,2.392,0,0,1-.833.277c-.053.562-.141,1.262-.234,1.83.71.056,1.333.169,1.368.175l.41.075.06.237a20.452,20.452,0,0,1,3.8,1.245,2.847,2.847,0,0,1,1.026.187l.147.054c3.292,1.228,5.56,2.058,6.422,2.35h.015c.474,0,1.358-.106,2.069-.19.4-.048.75-.089.977-.107l.036,0c.078-.006.157-.011.234-.011a.977.977,0,0,1,1.038.767l.069.307-.153.188a.653.653,0,0,1-.067.283.959.959,0,0,1-.485.467,1.129,1.129,0,0,1-.657.486l-.063.012h-.077c-.327.245-.858.639-1.212.9a.836.836,0,0,1-.359.456.91.91,0,0,1-.307.129.96.96,0,0,1-.215.153.93.93,0,0,1-.433.116.766.766,0,0,1-.205-.028.689.689,0,0,1-.15.016.738.738,0,0,1-.262-.049,2.184,2.184,0,0,1-1.212-1c-1.576-.037-5.384-.231-6.117-.846l-.036-.029-.03-.035a.335.335,0,0,0-.255-.112h-.027c-.213.015-.449.022-.7.022a34.121,34.121,0,0,1-3.964-.335c-.29-.037-.559-.07-.795-.1l-.021,1.959-.219.07c.029.44.059.812.086,1.151.013.174.027.339.038.5a19.177,19.177,0,0,1,.052,2.295c-.031.894-1.962,2.467-2.805,2.467h0c-.476.041-1.365.106-2.391.181-1.306.1-2.775.2-3.6.278l-.4.278c-.431.3-.967.669-1.593,1.147A.961.961,0,0,1,470.871,3232.113Z"/><path class="e" d="M481.6,3227.544a18.849,18.849,0,0,0-.051-2.225c-.043-.582-.1-1.231-.156-2.163l.254-.081.021-1.949.517.027s-.01,0,.057-.221a35.369,35.369,0,0,0,5.485.424.981.981,0,0,1,.808.325c.425.357,3.525.684,6.113.7a1.587,1.587,0,0,0,1.02,1.031c.056.032.1,0,.246-.071.083.087.129.133.282.054.122-.064.119-.122.078-.221l.123-.078c.078.081.148.125.265.05s.127-.1.043-.232c.263-.173,1.778-1.308,1.778-1.308.056.055.089.085.122.079a.564.564,0,0,0,.22-.171c.018-.043-.024-.095-.072-.153l.261-.2c.045.058.082.092.116.081a.314.314,0,0,0,.158-.15c.017-.036-.029-.094-.067-.149l.171-.21c-.067-.3-.365-.267-.626-.249-.652.05-2.515.329-3.225.3-1.33-.443-6.384-2.332-6.683-2.443a2.331,2.331,0,0,0-.952-.144,21.489,21.489,0,0,0-4.173-1.354c-.068-.02-.042-.13-.063-.214a13.011,13.011,0,0,0-2.031-.2,22.267,22.267,0,0,0,.417-3.247.89.89,0,0,0,.417.155,2.608,2.608,0,0,0,1.058-.363c.211-.086.242.039.363-.036.27-.168.4-.657.8-.954.253-.2.516-.14.624-.372a1.554,1.554,0,0,0,.016-1.074,2.05,2.05,0,0,0-.741-1.438,1.765,1.765,0,0,0-1.209-.427,2.259,2.259,0,0,0-2.107,1.636,7.526,7.526,0,0,0-1.475-.748c-1.165-.417-4.834.389-5.245.578a2.373,2.373,0,0,1,.031.361.891.891,0,0,0-.624.269c-.863,1.253-1.854,3.009-1.854,3.009a1.1,1.1,0,0,0-.763.684c-.176.368-.336.415-.7.65-.252.086-.16.365-.016.354a1.5,1.5,0,0,0,.77-.37c-.146.445-.669.759-.684.939.053.242.617.577,1.35.019a2.706,2.706,0,0,0,.644-.562,6.119,6.119,0,0,0,.246-.946,26.251,26.251,0,0,0,2.294-2.106s1.826-.369,2.7-.505c0,0-.677.322-1.352.554-1.128,4.192-1.04,6.038-.448,6.228-.461.83.6,4.229,1.16,5.657l.276.047s.111.318.313.9c.127.367.29.838.483,1.4-.834-.427-3.525.774-4.484,1.1a4.744,4.744,0,0,0-.858-.637.879.879,0,0,0-.77.15c-.056-.036-.129-.132-.25.047-.079.115-.04.14.043.2a2.689,2.689,0,0,0-.137.242c-.068-.019-.121-.092-.215.085-.1.2,0,.207.088.242-.27.548-.717.883-.988,1.449-.084-.034-.147-.073-.234.151-.061.158,0,.185.094.235a4.27,4.27,0,0,0-.1.45.136.136,0,0,0-.179.115c-.031.225,0,.258.136.273,0,.1-.008.2-.008.321.078.332.372.4.544.265.921-.7,1.631-1.165,2.152-1.538,1.369-.129,5.112-.383,6.209-.479A3.85,3.85,0,0,0,481.6,3227.544Z"/><path class="b" d="M502.738,3220.715a2.906,2.906,0,1,1,2.844-2.905A2.877,2.877,0,0,1,502.738,3220.715Z"/><path class="f" d="M500.542,3217.81a2.2,2.2,0,1,0,2.2-2.257A2.227,2.227,0,0,0,500.542,3217.81Z"/><path class="b" d="M490.823,3241.448v-5.725c-.134,0-.269.006-.4.006l-.237,0v5.721h-3.04v-6.089a14.8,14.8,0,0,1-7.717-4.585l-.653-.736.935-.309a4.762,4.762,0,0,0,1.937-1.467l.468-.607.52.563a10.6,10.6,0,0,0,18.4-7.192V3221c0-.022,0-.044,0-.066l-.007-.926.872.311a2.5,2.5,0,0,0,2.223-.26l.965-.621.037,1.257c0,.111.007.222.007.333a14.749,14.749,0,0,1-11.26,14.3v6.127Z"/><path class="g" d="M502.738,3221.114a3.174,3.174,0,0,1-1.065-.187c0,.033,0,.066,0,.1a11.249,11.249,0,0,1-19.519,7.632,5.413,5.413,0,0,1-2.246,1.686,14.063,14.063,0,0,0,7.88,4.49v5.966h1.744v-5.748q.439.029.886.029c.353,0,.7-.014,1.05-.039v5.758h1.744v-6a14.078,14.078,0,0,0,11.261-13.775c0-.142-.007-.283-.011-.424A3.183,3.183,0,0,1,502.738,3221.114Z"/><path class="b" d="M499.732,3215.95a10.6,10.6,0,0,0-13.1-4.829l-.723.277-.178-.928a2.43,2.43,0,0,0-.886-1.685c-.07-.055-.144-.109-.235-.167l-1.022-.665,1.123-.475a14.635,14.635,0,0,1,2.432-.785v-6.257h3.04v5.89l.237,0c.134,0,.268,0,.4.006v-5.894h3.04v6.3a14.665,14.665,0,0,1,9.58,7.479l.522.994-1.122-.045-.07,0-.035,0a2.57,2.57,0,0,0-1.946.907l-.61.711Z"/><path class="h" d="M485.247,3208.277a3.055,3.055,0,0,1,1.121,2.072l.025.132.007.035a11.243,11.243,0,0,1,13.9,5.123,3.211,3.211,0,0,1,2.438-1.133c.045,0,.088,0,.131.007a14.1,14.1,0,0,0-9.654-7.26v-6.169h-1.744v5.927q-.521-.039-1.05-.039-.447,0-.886.029v-5.917h-1.744v6.136a13.86,13.86,0,0,0-2.828.855C485.058,3208.136,485.152,3208.2,485.247,3208.277Z"/></g></svg>