<svg id="Layer_1" data-name="Layer 1" xmlns="http://www.w3.org/2000/svg" viewBox="0 0 37.01294 30.15242"><defs><style>.cls-1{fill:#fff;}</style></defs><path class="cls-1" d="M32.837,4.73481a.13584.13584,0,0,1-.13611.015.08.08,0,0,1,.068-.052c.03406-.023.06909-.045.103-.068A7.62753,7.62753,0,0,0,35.937.75683c.017-.05.057-.101.031-.164-.057-.003-.0951.038-.13709.063a15.37929,15.37929,0,0,1-4.532,1.72.21972.21972,0,0,1-.228-.079A7.5072,7.5072,0,0,0,25.83.00481a7.42092,7.42092,0,0,0-3.582.781,7.61756,7.61756,0,0,0-4.083,8.399c.0321.152-.011.161-.137.152-.786-.057-1.569-.141-2.348-.272a21.38047,21.38047,0,0,1-6.194-2.04,21.44532,21.44532,0,0,1-6.525-5.095c-.152-.174-.302-.351-.46192-.539a7.54189,7.54189,0,0,0-.828,5.533,7.54761,7.54761,0,0,0,3.182,4.63,7.69455,7.69455,0,0,1-3.448-.95,7.52058,7.52058,0,0,0,1.68689,4.866,7.63339,7.63339,0,0,0,4.358,2.693,7.31012,7.31012,0,0,1-3.181.161c-.188-.032-.19592-.026-.13293.149a7.62135,7.62135,0,0,0,5.703,4.955,10.073,10.073,0,0,0,1.34094.157,15.32532,15.32532,0,0,1-5.287,2.682A15.62539,15.62539,0,0,1,0,26.75982a.29344.29344,0,0,0,.08594.078,21.54356,21.54356,0,0,0,10.31006,3.277,22.79435,22.79435,0,0,0,4.72-.221,20.91557,20.91557,0,0,0,6.172-1.906,20.20452,20.20452,0,0,0,7.176-5.856,22.10156,22.10156,0,0,0,4.772-14.491.22711.22711,0,0,1,.108-.217,15.41543,15.41543,0,0,0,3.065-2.994c.208-.267.41-.539.604-.845-.377.145-.72595.29-1.08093.415a14.42661,14.42661,0,0,1-3.095.735"/></svg>