<svg id="Layer_1" data-name="Layer 1" xmlns="http://www.w3.org/2000/svg" viewBox="0 0 30.85595 30.856"><defs><style>.cls-1{fill:#fff;}.cls-2{fill:none;stroke:#fff;stroke-miterlimit:10;stroke-width:0.703px;}</style></defs><path class="cls-1" d="M24.05047,19.67761l.67591-4.401h-4.224v-2.857a2.2014,2.2014,0,0,1,2.48205-2.379h1.91993v-3.747a23.37857,23.37857,0,0,0-3.40894-.298c-3.478,0-5.75195,2.109-5.75195,5.925v3.356H11.8764v4.401h3.86707v10.642a15.39468,15.39468,0,0,0,4.75891,0v-10.642Z"/><path class="cls-2" d="M4.75751.3515H26.09845a4.406,4.406,0,0,1,4.406,4.406v21.341a4.406,4.406,0,0,1-4.406,4.406H4.75749a4.406,4.406,0,0,1-4.406-4.406V4.75751A4.406,4.406,0,0,1,4.75751.3515Z"/></svg>