<svg id="Layer_1" data-name="Layer 1" xmlns="http://www.w3.org/2000/svg" viewBox="0 0 36.54985 30.15268"><defs><style>.cls-1{fill:#fff;}</style></defs><path class="cls-1" d="M36.47853.64884a.7766.7766,0,0,0-.531-.579,2.73361,2.73361,0,0,0-1.43909.101s-32.026,11.511-33.855,12.787c-.395.274-.526.433-.59094.621-.316.907.66894,1.307.66894,1.307l8.254,2.69a.8978.8978,0,0,0,.418-.025c1.87695-1.186,18.891-11.93,19.874-12.292.15393-.046.26795.007.238.114-.39209,1.379-15.171,14.514-15.171,14.514a.76779.76779,0,0,0-.092.153l-.019-.012-.771,8.187s-.3219,2.509,2.187,0c1.769-1.769,3.48108-3.25,4.339-3.97,2.838,1.959,5.89209,4.127,7.21106,5.26a2.29183,2.29183,0,0,0,1.672.646c1.251-.047,1.6-1.422,1.6-1.422s5.83606-23.488,6.031-26.635c.019-.308.045-.505.047-.716a2.62878,2.62878,0,0,0-.07093-.729"/></svg>