<svg id="Layer_1" data-name="Layer 1" xmlns="http://www.w3.org/2000/svg" viewBox="0 0 43.07495 30.15298"><defs><style>.cls-1{fill:#fff;}</style></defs><path class="cls-1" d="M42.174,4.709A5.39331,5.39331,0,0,0,38.366.9C35.006,0,21.537,0,21.537,0S8.06689,0,4.70789.9a5.39479,5.39479,0,0,0-3.809,3.809C0,8.068,0,15.076,0,15.076s0,7.009.89893,10.368a5.39482,5.39482,0,0,0,3.809,3.809c3.359.9,16.8291.9,16.8291.9s13.469,0,16.829-.9a5.39334,5.39334,0,0,0,3.808-3.809c.901-3.359.901-10.368.901-10.368s0-7.008-.901-10.367M17.229,21.538V8.615l11.19092,6.462Z"/></svg>